<svg width="378" height="275" viewBox="0 0 378 275" fill="none" xmlns="http://www.w3.org/2000/svg">
<g clip-path="url(#clip0_9_185)">
<path d="M220.184 48.4793C227.269 48.4793 233.012 42.7346 233.012 35.6482C233.012 28.5617 227.269 22.8171 220.184 22.8171C213.1 22.8171 207.357 28.5617 207.357 35.6482C207.357 42.7346 213.1 48.4793 220.184 48.4793Z" fill="#F2F2F2"/>
<path d="M319.691 238.908C338.757 224.381 347.864 199.971 342.163 176.685C342.021 176.106 341.872 175.529 341.714 174.953C337.935 161.13 328.584 147.994 314.955 143.577C303.512 139.868 291.021 142.72 279.083 141.245C255.648 138.351 237.479 119.383 224.695 99.5242C211.911 79.6652 202.085 57.4358 185.098 41.0294C157.097 13.9861 111.421 8.16366 76.7037 25.7668C41.9867 43.37 19.8723 82.4242 20.8154 121.346C21.7586 160.269 44.8584 197.481 78.4051 217.225C90.7288 224.478 104.982 229.616 119.167 227.818C131.476 226.258 142.659 219.643 154.91 217.679C174.17 214.591 193.308 223.302 209.966 233.452C226.625 243.603 242.716 255.634 261.647 260.34C280.028 264.91 302.801 251.776 319.691 238.908Z" fill="#F2F2F2"/>
<path d="M292.297 26.5842C291.879 26.3054 291.456 26.0411 291.038 25.772C278.956 18.0427 266.006 11.7635 252.456 7.0641L249.314 50.4196H229.396V0.735222C228.142 0.475724 226.879 0.230642 225.615 -2.28882e-05V50.4196H201.945C188.915 50.4196 176.418 45.2417 167.204 36.025C157.99 26.8083 152.813 14.3078 152.813 1.2735C151.545 1.54741 150.286 1.84051 149.028 2.15287V50.4196H129.748L126.755 9.07762C112.831 14.4196 99.6107 21.4445 87.3903 29.9961C87.1789 30.1403 86.9675 30.2892 86.761 30.4334C85.6992 31.1782 84.6519 31.9375 83.6094 32.7064V198.108H140.428L139.424 184.196L133.899 107.812H245.159L239.634 184.196L238.63 198.108H294.819V28.2565C293.983 27.6894 293.142 27.132 292.297 26.5842ZM149.028 95.1975H132.987L130.022 54.2063H149.028V95.1975ZM225.615 95.1975H198.674V94.3853C198.674 93.9949 198.597 93.6083 198.447 93.2477C198.298 92.8871 198.079 92.5595 197.802 92.2836C197.526 92.0078 197.198 91.7891 196.838 91.6402C196.477 91.4912 196.09 91.4149 195.7 91.4155H183.987C183.597 91.4154 183.211 91.4921 182.851 91.6413C182.491 91.7905 182.163 92.0092 181.888 92.285C181.612 92.5608 181.393 92.8883 181.244 93.2486C181.095 93.609 181.018 93.9953 181.018 94.3853V95.1975H152.813V54.2063H225.615V95.1975ZM229.396 95.1975V54.2063H249.04L246.076 95.1975H229.396Z" fill="#40514E"/>
<path d="M-3.05176e-05 208.7C4.17345 213.646 8.68755 218.295 13.5092 222.612L364.491 223.092C369.312 218.775 373.826 214.127 378 209.18L-3.05176e-05 208.7Z" fill="#40514E"/>
<path d="M238.012 164.153V205.338C238.012 205.863 238.221 206.366 238.592 206.737C238.963 207.108 239.466 207.317 239.991 207.317H301.006C301.53 207.317 302.033 207.108 302.404 206.737C302.775 206.366 302.984 205.863 302.984 205.338V164.153C302.983 163.628 302.774 163.126 302.403 162.755C302.032 162.385 301.53 162.176 301.006 162.175H239.991C239.466 162.176 238.964 162.385 238.593 162.755C238.222 163.126 238.013 163.628 238.012 164.153Z" fill="#3F3D56"/>
<path d="M239.443 164.665V204.83C239.444 205.11 239.555 205.379 239.754 205.577C239.952 205.776 240.22 205.887 240.501 205.888H300.498C300.778 205.887 301.047 205.776 301.245 205.577C301.443 205.379 301.555 205.11 301.555 204.83V164.665C301.555 164.384 301.444 164.115 301.246 163.916C301.047 163.718 300.778 163.606 300.498 163.605H240.501C240.22 163.606 239.951 163.718 239.753 163.916C239.555 164.115 239.443 164.384 239.443 164.665Z" fill="#11999E"/>
<path d="M236.736 213.37C236.848 213.51 236.99 213.623 237.151 213.701C237.313 213.778 237.49 213.818 237.669 213.817H303.002C303.181 213.817 303.357 213.777 303.518 213.7C303.68 213.623 303.822 213.511 303.934 213.372C304.047 213.233 304.127 213.071 304.169 212.897C304.211 212.724 304.214 212.543 304.177 212.368L303.163 207.549C303.121 207.353 303.03 207.17 302.9 207.017C302.769 206.865 302.602 206.747 302.414 206.676C302.279 206.622 302.134 206.595 301.988 206.595H238.68C238.534 206.595 238.389 206.622 238.253 206.676C238.065 206.747 237.898 206.865 237.768 207.017C237.637 207.17 237.547 207.353 237.504 207.549L236.49 212.368C236.454 212.543 236.458 212.723 236.5 212.897C236.542 213.07 236.623 213.232 236.736 213.37Z" fill="#2F2E41"/>
<path d="M299.746 208.671H301.289C301.419 208.671 301.524 208.566 301.524 208.436V207.698C301.524 207.568 301.419 207.463 301.289 207.463H299.746C299.617 207.463 299.512 207.568 299.512 207.698V208.436C299.512 208.566 299.617 208.671 299.746 208.671Z" fill="#3F3D56"/>
<path d="M295.722 208.671H297.265C297.394 208.671 297.499 208.566 297.499 208.436V207.698C297.499 207.568 297.394 207.463 297.265 207.463H295.722C295.592 207.463 295.487 207.568 295.487 207.698V208.436C295.487 208.566 295.592 208.671 295.722 208.671Z" fill="#3F3D56"/>
<path d="M291.697 208.671H293.24C293.37 208.671 293.475 208.566 293.475 208.436V207.698C293.475 207.568 293.37 207.463 293.24 207.463H291.697C291.568 207.463 291.463 207.568 291.463 207.698V208.436C291.463 208.566 291.568 208.671 291.697 208.671Z" fill="#3F3D56"/>
<path d="M287.673 208.671H289.216C289.346 208.671 289.451 208.566 289.451 208.436V207.698C289.451 207.568 289.346 207.463 289.216 207.463H287.673C287.543 207.463 287.438 207.568 287.438 207.698V208.436C287.438 208.566 287.543 208.671 287.673 208.671Z" fill="#3F3D56"/>
<path d="M283.648 208.671H285.192C285.321 208.671 285.426 208.566 285.426 208.436V207.698C285.426 207.568 285.321 207.463 285.192 207.463H283.648C283.519 207.463 283.414 207.568 283.414 207.698V208.436C283.414 208.566 283.519 208.671 283.648 208.671Z" fill="#3F3D56"/>
<path d="M279.624 208.671H281.167C281.297 208.671 281.402 208.566 281.402 208.436V207.698C281.402 207.568 281.297 207.463 281.167 207.463H279.624C279.495 207.463 279.39 207.568 279.39 207.698V208.436C279.39 208.566 279.495 208.671 279.624 208.671Z" fill="#3F3D56"/>
<path d="M275.6 208.671H277.143C277.272 208.671 277.377 208.566 277.377 208.436V207.698C277.377 207.568 277.272 207.463 277.143 207.463H275.6C275.47 207.463 275.365 207.568 275.365 207.698V208.436C275.365 208.566 275.47 208.671 275.6 208.671Z" fill="#3F3D56"/>
<path d="M271.575 208.671H273.118C273.248 208.671 273.353 208.566 273.353 208.436V207.698C273.353 207.568 273.248 207.463 273.118 207.463H271.575C271.446 207.463 271.341 207.568 271.341 207.698V208.436C271.341 208.566 271.446 208.671 271.575 208.671Z" fill="#3F3D56"/>
<path d="M267.551 208.671H269.094C269.224 208.671 269.328 208.566 269.328 208.436V207.698C269.328 207.568 269.224 207.463 269.094 207.463H267.551C267.421 207.463 267.316 207.568 267.316 207.698V208.436C267.316 208.566 267.421 208.671 267.551 208.671Z" fill="#3F3D56"/>
<path d="M263.526 208.671H265.07C265.199 208.671 265.304 208.566 265.304 208.436V207.698C265.304 207.568 265.199 207.463 265.07 207.463H263.526C263.397 207.463 263.292 207.568 263.292 207.698V208.436C263.292 208.566 263.397 208.671 263.526 208.671Z" fill="#3F3D56"/>
<path d="M259.502 208.671H261.045C261.175 208.671 261.28 208.566 261.28 208.436V207.698C261.28 207.568 261.175 207.463 261.045 207.463H259.502C259.372 207.463 259.267 207.568 259.267 207.698V208.436C259.267 208.566 259.372 208.671 259.502 208.671Z" fill="#3F3D56"/>
<path d="M255.478 208.671H257.021C257.15 208.671 257.255 208.566 257.255 208.436V207.698C257.255 207.568 257.15 207.463 257.021 207.463H255.478C255.348 207.463 255.243 207.568 255.243 207.698V208.436C255.243 208.566 255.348 208.671 255.478 208.671Z" fill="#3F3D56"/>
<path d="M251.453 208.671H252.996C253.126 208.671 253.231 208.566 253.231 208.436V207.698C253.231 207.568 253.126 207.463 252.996 207.463H251.453C251.324 207.463 251.219 207.568 251.219 207.698V208.436C251.219 208.566 251.324 208.671 251.453 208.671Z" fill="#3F3D56"/>
<path d="M247.429 208.671H248.972C249.101 208.671 249.206 208.566 249.206 208.436V207.698C249.206 207.568 249.101 207.463 248.972 207.463H247.429C247.299 207.463 247.194 207.568 247.194 207.698V208.436C247.194 208.566 247.299 208.671 247.429 208.671Z" fill="#3F3D56"/>
<path d="M243.404 208.671H244.947C245.077 208.671 245.182 208.566 245.182 208.436V207.698C245.182 207.568 245.077 207.463 244.947 207.463H243.404C243.275 207.463 243.17 207.568 243.17 207.698V208.436C243.17 208.566 243.275 208.671 243.404 208.671Z" fill="#3F3D56"/>
<path d="M239.38 208.671H240.923C241.052 208.671 241.157 208.566 241.157 208.436V207.698C241.157 207.568 241.052 207.463 240.923 207.463H239.38C239.25 207.463 239.145 207.568 239.145 207.698V208.436C239.145 208.566 239.25 208.671 239.38 208.671Z" fill="#3F3D56"/>
<path d="M299.794 210.683H301.337C301.466 210.683 301.571 210.578 301.571 210.449V209.71C301.571 209.581 301.466 209.476 301.337 209.476H299.794C299.664 209.476 299.559 209.581 299.559 209.71V210.449C299.559 210.578 299.664 210.683 299.794 210.683Z" fill="#3F3D56"/>
<path d="M295.769 210.683H297.312C297.442 210.683 297.547 210.578 297.547 210.449V209.71C297.547 209.581 297.442 209.476 297.312 209.476H295.769C295.64 209.476 295.535 209.581 295.535 209.71V210.449C295.535 210.578 295.64 210.683 295.769 210.683Z" fill="#3F3D56"/>
<path d="M291.745 210.683H293.288C293.418 210.683 293.523 210.578 293.523 210.449V209.71C293.523 209.581 293.418 209.476 293.288 209.476H291.745C291.615 209.476 291.51 209.581 291.51 209.71V210.449C291.51 210.578 291.615 210.683 291.745 210.683Z" fill="#3F3D56"/>
<path d="M287.72 210.683H289.264C289.393 210.683 289.498 210.578 289.498 210.449V209.71C289.498 209.581 289.393 209.476 289.264 209.476H287.72C287.591 209.476 287.486 209.581 287.486 209.71V210.449C287.486 210.578 287.591 210.683 287.72 210.683Z" fill="#3F3D56"/>
<path d="M283.696 210.683H285.239C285.369 210.683 285.474 210.578 285.474 210.449V209.71C285.474 209.581 285.369 209.476 285.239 209.476H283.696C283.567 209.476 283.461 209.581 283.461 209.71V210.449C283.461 210.578 283.567 210.683 283.696 210.683Z" fill="#3F3D56"/>
<path d="M279.672 210.683H281.215C281.344 210.683 281.449 210.578 281.449 210.449V209.71C281.449 209.581 281.344 209.476 281.215 209.476H279.672C279.542 209.476 279.437 209.581 279.437 209.71V210.449C279.437 210.578 279.542 210.683 279.672 210.683Z" fill="#3F3D56"/>
<path d="M275.647 210.683H277.19C277.32 210.683 277.425 210.578 277.425 210.449V209.71C277.425 209.581 277.32 209.476 277.19 209.476H275.647C275.518 209.476 275.413 209.581 275.413 209.71V210.449C275.413 210.578 275.518 210.683 275.647 210.683Z" fill="#3F3D56"/>
<path d="M271.623 210.683H273.166C273.295 210.683 273.4 210.578 273.4 210.449V209.71C273.4 209.581 273.295 209.476 273.166 209.476H271.623C271.493 209.476 271.388 209.581 271.388 209.71V210.449C271.388 210.578 271.493 210.683 271.623 210.683Z" fill="#3F3D56"/>
<path d="M267.598 210.683H269.141C269.271 210.683 269.376 210.578 269.376 210.449V209.71C269.376 209.581 269.271 209.476 269.141 209.476H267.598C267.469 209.476 267.364 209.581 267.364 209.71V210.449C267.364 210.578 267.469 210.683 267.598 210.683Z" fill="#3F3D56"/>
<path d="M263.574 210.683H265.117C265.247 210.683 265.352 210.578 265.352 210.449V209.71C265.352 209.581 265.247 209.476 265.117 209.476H263.574C263.444 209.476 263.339 209.581 263.339 209.71V210.449C263.339 210.578 263.444 210.683 263.574 210.683Z" fill="#3F3D56"/>
<path d="M259.549 210.683H261.093C261.222 210.683 261.327 210.578 261.327 210.449V209.71C261.327 209.581 261.222 209.476 261.093 209.476H259.549C259.42 209.476 259.315 209.581 259.315 209.71V210.449C259.315 210.578 259.42 210.683 259.549 210.683Z" fill="#3F3D56"/>
<path d="M255.525 210.683H257.068C257.198 210.683 257.303 210.578 257.303 210.449V209.71C257.303 209.581 257.198 209.476 257.068 209.476H255.525C255.396 209.476 255.291 209.581 255.291 209.71V210.449C255.291 210.578 255.396 210.683 255.525 210.683Z" fill="#3F3D56"/>
<path d="M251.501 210.683H253.044C253.173 210.683 253.278 210.578 253.278 210.449V209.71C253.278 209.581 253.173 209.476 253.044 209.476H251.501C251.371 209.476 251.266 209.581 251.266 209.71V210.449C251.266 210.578 251.371 210.683 251.501 210.683Z" fill="#3F3D56"/>
<path d="M247.476 210.683H249.019C249.149 210.683 249.254 210.578 249.254 210.449V209.71C249.254 209.581 249.149 209.476 249.019 209.476H247.476C247.347 209.476 247.242 209.581 247.242 209.71V210.449C247.242 210.578 247.347 210.683 247.476 210.683Z" fill="#3F3D56"/>
<path d="M243.452 210.683H244.995C245.124 210.683 245.229 210.578 245.229 210.449V209.71C245.229 209.581 245.124 209.476 244.995 209.476H243.452C243.322 209.476 243.217 209.581 243.217 209.71V210.449C243.217 210.578 243.322 210.683 243.452 210.683Z" fill="#3F3D56"/>
<path d="M239.427 210.683H240.97C241.1 210.683 241.205 210.578 241.205 210.449V209.71C241.205 209.581 241.1 209.476 240.97 209.476H239.427C239.298 209.476 239.193 209.581 239.193 209.71V210.449C239.193 210.578 239.298 210.683 239.427 210.683Z" fill="#3F3D56"/>
<path d="M266.391 213.099H282.02C282.149 213.099 282.254 212.994 282.254 212.864V212.126C282.254 211.996 282.149 211.891 282.02 211.891H266.391C266.261 211.891 266.156 211.996 266.156 212.126V212.864C266.156 212.994 266.261 213.099 266.391 213.099Z" fill="#3F3D56"/>
<path d="M249.833 172.392H248.467C248.053 172.392 247.717 172.728 247.717 173.142C247.717 173.557 248.053 173.892 248.467 173.892H249.833C250.247 173.892 250.583 173.557 250.583 173.142C250.583 172.728 250.247 172.392 249.833 172.392Z" fill="white"/>
<path d="M265.457 172.392H264.091C263.677 172.392 263.341 172.728 263.341 173.142C263.341 173.557 263.677 173.892 264.091 173.892H265.457C265.872 173.892 266.207 173.557 266.207 173.142C266.207 172.728 265.872 172.392 265.457 172.392Z" fill="white"/>
<path d="M269.884 172.392H268.518C268.104 172.392 267.768 172.728 267.768 173.142C267.768 173.557 268.104 173.892 268.518 173.892H269.884C270.299 173.892 270.634 173.557 270.634 173.142C270.634 172.728 270.299 172.392 269.884 172.392Z" fill="white"/>
<path d="M261.208 172.267H252.717C252.303 172.267 251.967 172.603 251.967 173.017C251.967 173.431 252.303 173.767 252.717 173.767H261.208C261.622 173.767 261.958 173.431 261.958 173.017C261.958 172.603 261.622 172.267 261.208 172.267Z" fill="white"/>
<path d="M282.04 172.267H273.549C273.135 172.267 272.799 172.603 272.799 173.017C272.799 173.431 273.135 173.767 273.549 173.767H282.04C282.454 173.767 282.79 173.431 282.79 173.017C282.79 172.603 282.454 172.267 282.04 172.267Z" fill="white"/>
<path d="M253.999 175.778H252.633C252.219 175.778 251.883 176.114 251.883 176.529C251.883 176.943 252.219 177.279 252.633 177.279H253.999C254.414 177.279 254.749 176.943 254.749 176.529C254.749 176.114 254.414 175.778 253.999 175.778Z" fill="white"/>
<path d="M269.624 175.778H268.258C267.844 175.778 267.508 176.114 267.508 176.529C267.508 176.943 267.844 177.279 268.258 177.279H269.624C270.038 177.279 270.374 176.943 270.374 176.529C270.374 176.114 270.038 175.778 269.624 175.778Z" fill="white"/>
<path d="M274.051 175.778H272.685C272.271 175.778 271.935 176.114 271.935 176.529C271.935 176.943 272.271 177.279 272.685 177.279H274.051C274.465 177.279 274.801 176.943 274.801 176.529C274.801 176.114 274.465 175.778 274.051 175.778Z" fill="white"/>
<path d="M265.374 175.653H256.883C256.469 175.653 256.133 175.989 256.133 176.403C256.133 176.818 256.469 177.154 256.883 177.154H265.374C265.788 177.154 266.124 176.818 266.124 176.403C266.124 175.989 265.788 175.653 265.374 175.653Z" fill="white"/>
<path d="M286.207 175.653H277.716C277.302 175.653 276.966 175.989 276.966 176.403C276.966 176.818 277.302 177.154 277.716 177.154H286.207C286.621 177.154 286.957 176.818 286.957 176.403C286.957 175.989 286.621 175.653 286.207 175.653Z" fill="white"/>
<path d="M258.166 179.165H256.8C256.386 179.165 256.05 179.501 256.05 179.915C256.05 180.329 256.386 180.665 256.8 180.665H258.166C258.58 180.665 258.916 180.329 258.916 179.915C258.916 179.501 258.58 179.165 258.166 179.165Z" fill="white"/>
<path d="M273.791 179.165H272.424C272.01 179.165 271.674 179.501 271.674 179.915C271.674 180.329 272.01 180.665 272.424 180.665H273.791C274.205 180.665 274.541 180.329 274.541 179.915C274.541 179.501 274.205 179.165 273.791 179.165Z" fill="white"/>
<path d="M278.218 179.165H276.851C276.437 179.165 276.101 179.501 276.101 179.915C276.101 180.329 276.437 180.665 276.851 180.665H278.218C278.632 180.665 278.968 180.329 278.968 179.915C278.968 179.501 278.632 179.165 278.218 179.165Z" fill="white"/>
<path d="M269.541 179.04H261.05C260.636 179.04 260.3 179.375 260.3 179.79C260.3 180.204 260.636 180.54 261.05 180.54H269.541C269.955 180.54 270.291 180.204 270.291 179.79C270.291 179.375 269.955 179.04 269.541 179.04Z" fill="white"/>
<path d="M290.373 179.04H281.883C281.468 179.04 281.133 179.375 281.133 179.79C281.133 180.204 281.468 180.54 281.883 180.54H290.373C290.788 180.54 291.123 180.204 291.123 179.79C291.123 179.375 290.788 179.04 290.373 179.04Z" fill="white"/>
<path d="M262.333 182.551H260.966C260.552 182.551 260.216 182.887 260.216 183.301C260.216 183.715 260.552 184.051 260.966 184.051H262.333C262.747 184.051 263.082 183.715 263.082 183.301C263.082 182.887 262.747 182.551 262.333 182.551Z" fill="white"/>
<path d="M277.957 182.551H276.591C276.177 182.551 275.841 182.887 275.841 183.301C275.841 183.715 276.177 184.051 276.591 184.051H277.957C278.371 184.051 278.707 183.715 278.707 183.301C278.707 182.887 278.371 182.551 277.957 182.551Z" fill="white"/>
<path d="M282.384 182.551H281.018C280.604 182.551 280.268 182.887 280.268 183.301C280.268 183.715 280.604 184.051 281.018 184.051H282.384C282.798 184.051 283.134 183.715 283.134 183.301C283.134 182.887 282.798 182.551 282.384 182.551Z" fill="white"/>
<path d="M273.707 182.426H265.216C264.802 182.426 264.466 182.762 264.466 183.176C264.466 183.59 264.802 183.926 265.216 183.926H273.707C274.121 183.926 274.457 183.59 274.457 183.176C274.457 182.762 274.121 182.426 273.707 182.426Z" fill="white"/>
<path d="M265.457 196.016H264.091C263.677 196.016 263.341 196.352 263.341 196.766C263.341 197.181 263.677 197.517 264.091 197.517H265.457C265.872 197.517 266.207 197.181 266.207 196.766C266.207 196.352 265.872 196.016 265.457 196.016Z" fill="white"/>
<path d="M269.884 196.016H268.518C268.104 196.016 267.768 196.352 267.768 196.766C267.768 197.181 268.104 197.517 268.518 197.517H269.884C270.299 197.517 270.634 197.181 270.634 196.766C270.634 196.352 270.299 196.016 269.884 196.016Z" fill="white"/>
<path d="M282.04 196.141H273.549C273.135 196.141 272.799 196.477 272.799 196.892C272.799 197.306 273.135 197.642 273.549 197.642H282.04C282.454 197.642 282.79 197.306 282.79 196.892C282.79 196.477 282.454 196.141 282.04 196.141Z" fill="white"/>
<path d="M249.833 196.016H248.467C248.053 196.016 247.717 196.352 247.717 196.766C247.717 197.181 248.053 197.517 248.467 197.517H249.833C250.247 197.517 250.583 197.181 250.583 196.766C250.583 196.352 250.247 196.016 249.833 196.016Z" fill="white"/>
<path d="M261.208 196.141H252.717C252.303 196.141 251.967 196.477 251.967 196.892C251.967 197.306 252.303 197.642 252.717 197.642H261.208C261.622 197.642 261.958 197.306 261.958 196.892C261.958 196.477 261.622 196.141 261.208 196.141Z" fill="white"/>
<path d="M253.999 192.63H252.633C252.219 192.63 251.883 192.966 251.883 193.38C251.883 193.794 252.219 194.13 252.633 194.13H253.999C254.414 194.13 254.749 193.794 254.749 193.38C254.749 192.966 254.414 192.63 253.999 192.63Z" fill="white"/>
<path d="M269.624 192.63H268.258C267.844 192.63 267.508 192.966 267.508 193.38C267.508 193.794 267.844 194.13 268.258 194.13H269.624C270.038 194.13 270.374 193.794 270.374 193.38C270.374 192.966 270.038 192.63 269.624 192.63Z" fill="white"/>
<path d="M274.051 192.63H272.685C272.271 192.63 271.935 192.966 271.935 193.38C271.935 193.794 272.271 194.13 272.685 194.13H274.051C274.465 194.13 274.801 193.794 274.801 193.38C274.801 192.966 274.465 192.63 274.051 192.63Z" fill="white"/>
<path d="M265.374 192.755H256.883C256.469 192.755 256.133 193.091 256.133 193.505C256.133 193.92 256.469 194.255 256.883 194.255H265.374C265.788 194.255 266.124 193.92 266.124 193.505C266.124 193.091 265.788 192.755 265.374 192.755Z" fill="white"/>
<path d="M258.166 189.244H256.8C256.386 189.244 256.05 189.58 256.05 189.994C256.05 190.408 256.386 190.744 256.8 190.744H258.166C258.58 190.744 258.916 190.408 258.916 189.994C258.916 189.58 258.58 189.244 258.166 189.244Z" fill="white"/>
<path d="M273.791 189.244H272.424C272.01 189.244 271.674 189.58 271.674 189.994C271.674 190.408 272.01 190.744 272.424 190.744H273.791C274.205 190.744 274.541 190.408 274.541 189.994C274.541 189.58 274.205 189.244 273.791 189.244Z" fill="white"/>
<path d="M278.218 189.244H276.851C276.437 189.244 276.101 189.58 276.101 189.994C276.101 190.408 276.437 190.744 276.851 190.744H278.218C278.632 190.744 278.968 190.408 278.968 189.994C278.968 189.58 278.632 189.244 278.218 189.244Z" fill="white"/>
<path d="M269.541 189.369H261.05C260.636 189.369 260.3 189.705 260.3 190.119C260.3 190.533 260.636 190.869 261.05 190.869H269.541C269.955 190.869 270.291 190.533 270.291 190.119C270.291 189.705 269.955 189.369 269.541 189.369Z" fill="white"/>
<path d="M262.333 185.857H260.966C260.552 185.857 260.216 186.193 260.216 186.608C260.216 187.022 260.552 187.358 260.966 187.358H262.333C262.747 187.358 263.082 187.022 263.082 186.608C263.082 186.193 262.747 185.857 262.333 185.857Z" fill="white"/>
<path d="M277.957 185.857H276.591C276.177 185.857 275.841 186.193 275.841 186.608C275.841 187.022 276.177 187.358 276.591 187.358H277.957C278.371 187.358 278.707 187.022 278.707 186.608C278.707 186.193 278.371 185.857 277.957 185.857Z" fill="white"/>
<path d="M282.384 185.857H281.018C280.604 185.857 280.268 186.193 280.268 186.608C280.268 187.022 280.604 187.358 281.018 187.358H282.384C282.798 187.358 283.134 187.022 283.134 186.608C283.134 186.193 282.798 185.857 282.384 185.857Z" fill="white"/>
<path d="M273.707 185.982H265.216C264.802 185.982 264.466 186.318 264.466 186.733C264.466 187.147 264.802 187.483 265.216 187.483H273.707C274.121 187.483 274.457 187.147 274.457 186.733C274.457 186.318 274.121 185.982 273.707 185.982Z" fill="white"/>
<path d="M242.57 235.702L236.156 225.562L256.287 209.51L264.596 200.302C265.675 199.106 267.05 198.214 268.582 197.715C270.114 197.217 271.75 197.129 273.326 197.462C274.903 197.794 276.365 198.534 277.565 199.608C278.766 200.682 279.664 202.053 280.17 203.583C280.919 205.851 280.758 208.321 279.721 210.472C278.684 212.623 276.852 214.287 274.611 215.112L261.473 219.954L242.57 235.702Z" fill="#FFB6B6"/>
<path d="M92.0907 162.177V211.463H126.609V162.177C126.609 161.823 126.496 161.478 126.286 161.192C126.076 160.907 125.78 160.696 125.441 160.591C125.282 160.539 125.114 160.513 124.946 160.515H93.7578C93.5391 160.514 93.3226 160.557 93.1204 160.64C92.9183 160.724 92.7346 160.846 92.5797 161C92.4249 161.155 92.302 161.338 92.2181 161.54C92.1342 161.742 92.0909 161.959 92.0907 162.177ZM105.562 179.112C105.571 178.14 105.963 177.212 106.653 176.528C107.343 175.844 108.275 175.46 109.246 175.46C110.218 175.46 111.15 175.844 111.84 176.528C112.53 177.212 112.922 178.14 112.931 179.112V184.831C112.926 185.805 112.536 186.738 111.845 187.425C111.155 188.112 110.22 188.498 109.246 188.498C108.272 188.498 107.338 188.112 106.647 187.425C105.957 186.738 105.567 185.805 105.562 184.831V179.112Z" fill="#2F2E41"/>
<path d="M91.985 209.887V214.639C91.9858 214.885 92.0836 215.121 92.2572 215.296C92.4308 215.47 92.6661 215.569 92.9122 215.572H125.787C126.033 215.57 126.269 215.472 126.443 215.297C126.617 215.122 126.714 214.886 126.714 214.639V209.887H91.985Z" fill="#3F3D56"/>
<path d="M37.7894 87.9223V177.911C37.7903 179.057 38.2462 180.157 39.0568 180.968C39.8675 181.779 40.9667 182.235 42.1132 182.236H175.428C176.575 182.235 177.674 181.779 178.485 180.968C179.295 180.157 179.751 179.057 179.752 177.911V87.9223C179.749 86.7766 179.293 85.6786 178.482 84.8688C177.672 84.0591 176.574 83.6036 175.428 83.6022H42.1132C40.9677 83.6036 39.8695 84.0591 39.0591 84.8688C38.2487 85.6786 37.7922 86.7766 37.7894 87.9223Z" fill="#3F3D56"/>
<path d="M40.9169 89.042V176.801C40.918 177.413 41.1618 178.001 41.5949 178.434C42.028 178.867 42.6152 179.111 43.2277 179.112H174.319C174.931 179.111 175.518 178.867 175.951 178.434C176.384 178.001 176.628 177.413 176.629 176.801V89.042C176.629 88.4285 176.386 87.8401 175.953 87.4059C175.52 86.9717 174.932 86.7271 174.319 86.7257H43.2277C42.6144 86.7271 42.0267 86.9717 41.5935 87.4059C41.1603 87.8401 40.917 88.4285 40.9169 89.042Z" fill="white"/>
<path d="M65.2451 215.25C65.3786 215.417 65.5482 215.552 65.7412 215.644C65.9342 215.737 66.1457 215.784 66.3597 215.783H144.35C144.564 215.783 144.774 215.735 144.967 215.643C145.159 215.551 145.329 215.417 145.463 215.252C145.597 215.086 145.693 214.892 145.743 214.685C145.793 214.478 145.797 214.262 145.753 214.053L144.542 208.301C144.492 208.066 144.384 207.848 144.228 207.666C144.072 207.484 143.873 207.343 143.649 207.258C143.487 207.194 143.314 207.162 143.14 207.162H67.5655C67.3913 207.162 67.2185 207.194 67.0563 207.258C66.8322 207.343 66.6331 207.484 66.477 207.666C66.3209 207.848 66.2129 208.066 66.1627 208.301L64.9521 214.053C64.909 214.262 64.913 214.477 64.9636 214.684C65.0143 214.891 65.1105 215.084 65.2451 215.25Z" fill="#2F2E41"/>
<path d="M170.064 98.8149H47.4031C47.2756 98.812 47.1543 98.7594 47.0651 98.6682C46.9759 98.577 46.926 98.4545 46.926 98.3269C46.926 98.1994 46.9759 98.0769 47.0651 97.9857C47.1543 97.8945 47.2756 97.8418 47.4031 97.839H170.064C170.192 97.8418 170.313 97.8945 170.402 97.9857C170.491 98.0769 170.541 98.1994 170.541 98.3269C170.541 98.4545 170.491 98.577 170.402 98.6682C170.313 98.7594 170.192 98.812 170.064 98.8149Z" fill="#3F3D56"/>
<path d="M55.7528 95.3478C57.3316 95.3478 58.6115 94.039 58.6115 92.4245C58.6115 90.8101 57.3316 89.5013 55.7528 89.5013C54.174 89.5013 52.8941 90.8101 52.8941 92.4245C52.8941 94.039 54.174 95.3478 55.7528 95.3478Z" fill="#3F3D56"/>
<path d="M65.6282 95.3478C67.207 95.3478 68.4869 94.039 68.4869 92.4245C68.4869 90.8101 67.207 89.5013 65.6282 89.5013C64.0494 89.5013 62.7695 90.8101 62.7695 92.4245C62.7695 94.039 64.0494 95.3478 65.6282 95.3478Z" fill="#3F3D56"/>
<path d="M75.5036 95.3478C77.0824 95.3478 78.3623 94.039 78.3623 92.4245C78.3623 90.8101 77.0824 89.5013 75.5036 89.5013C73.9248 89.5013 72.645 90.8101 72.645 92.4245C72.645 94.039 73.9248 95.3478 75.5036 95.3478Z" fill="#3F3D56"/>
<path d="M164.118 90.2242H157.104C156.965 90.2274 156.833 90.2848 156.736 90.384C156.639 90.4832 156.585 90.6165 156.585 90.7552C156.585 90.8939 156.639 91.0272 156.736 91.1264C156.833 91.2256 156.965 91.283 157.104 91.2862H164.118C164.257 91.2842 164.39 91.2274 164.488 91.1281C164.586 91.0287 164.641 90.8947 164.641 90.7552C164.641 90.6156 164.586 90.4817 164.488 90.3823C164.39 90.283 164.257 90.2262 164.118 90.2242Z" fill="#3F3D56"/>
<path d="M164.118 92.2185H157.104C156.965 92.2215 156.833 92.2788 156.736 92.3781C156.639 92.4773 156.584 92.6107 156.584 92.7495C156.584 92.8883 156.639 93.0216 156.736 93.1209C156.833 93.2201 156.965 93.2774 157.104 93.2805H164.118C164.257 93.2788 164.391 93.2221 164.489 93.1227C164.587 93.0233 164.642 92.8892 164.642 92.7495C164.642 92.6098 164.587 92.4756 164.489 92.3762C164.391 92.2768 164.257 92.2202 164.118 92.2185Z" fill="#3F3D56"/>
<path d="M164.118 94.2127H157.104C156.965 94.216 156.833 94.2733 156.736 94.3726C156.639 94.4718 156.585 94.605 156.585 94.7438C156.585 94.8825 156.639 95.0157 156.736 95.1149C156.833 95.2142 156.965 95.2715 157.104 95.2748H164.118C164.257 95.2728 164.39 95.216 164.488 95.1166C164.586 95.0172 164.641 94.8833 164.641 94.7438C164.641 94.6042 164.586 94.4703 164.488 94.3709C164.39 94.2715 164.257 94.2147 164.118 94.2127Z" fill="#3F3D56"/>
<path d="M333.214 211.972C333.425 212.589 333.827 213.122 334.361 213.496C334.894 213.87 335.533 214.065 336.184 214.054L348.911 213.726C349.567 213.713 350.202 213.488 350.72 213.085C351.238 212.682 351.611 212.121 351.785 211.488L353.586 192.224C354.224 192.514 354.92 192.657 355.622 192.643C356.231 192.627 356.831 192.492 357.388 192.245C357.945 191.997 358.448 191.643 358.868 191.201C359.288 190.759 359.617 190.239 359.836 189.67C360.055 189.101 360.16 188.494 360.145 187.885C360.13 187.275 359.995 186.675 359.747 186.117C359.5 185.56 359.145 185.057 358.704 184.637C358.262 184.217 357.742 183.888 357.173 183.669C356.604 183.45 355.998 183.345 355.389 183.36C355.108 183.359 354.829 183.388 354.554 183.447C354.256 183.124 353.894 182.867 353.491 182.693C353.087 182.519 352.652 182.432 352.213 182.436L332.636 182.942C332.473 182.948 332.312 182.968 332.153 183.002C331.724 183.082 331.316 183.253 330.959 183.504C330.601 183.754 330.301 184.079 330.079 184.455C329.857 184.831 329.719 185.251 329.673 185.685C329.626 186.12 329.674 186.559 329.812 186.973L333.214 211.972ZM353.955 190.916L355.236 186.326C355.382 185.795 355.386 185.236 355.246 184.704C355.308 184.704 355.363 184.674 355.425 184.674C356.304 184.656 357.154 184.987 357.789 185.595C358.424 186.203 358.792 187.038 358.813 187.916C358.834 188.795 358.505 189.647 357.899 190.284C357.293 190.92 356.46 191.291 355.581 191.314C355.013 191.332 354.451 191.194 353.955 190.916Z" fill="#2F2E41"/>
<path d="M332.153 183.002C332.57 185.387 337.259 187.064 342.898 186.773C348.083 186.534 352.322 184.713 353.099 182.554C352.811 182.469 352.513 182.429 352.213 182.436L332.636 182.942C332.473 182.948 332.312 182.968 332.153 183.002Z" fill="#3F3D56"/>
<path d="M343.931 201.387C343.957 201.38 343.981 201.369 344.004 201.355L346.768 199.545C346.801 199.523 346.828 199.494 346.847 199.458C346.866 199.423 346.876 199.384 346.876 199.344C346.876 199.304 346.866 199.265 346.847 199.23C346.828 199.195 346.801 199.165 346.768 199.143L343.895 197.261C343.869 197.244 343.839 197.232 343.808 197.226C343.777 197.22 343.745 197.22 343.714 197.226C343.683 197.233 343.654 197.245 343.627 197.263C343.601 197.281 343.579 197.303 343.562 197.33C343.544 197.356 343.532 197.386 343.527 197.417C343.521 197.448 343.521 197.48 343.527 197.511C343.534 197.542 343.547 197.571 343.564 197.597C343.582 197.623 343.605 197.646 343.632 197.663L346.198 199.344L343.741 200.953C343.693 200.984 343.658 201.031 343.642 201.085C343.626 201.14 343.629 201.198 343.652 201.25C343.675 201.302 343.716 201.345 343.767 201.37C343.818 201.395 343.876 201.401 343.931 201.387H343.931Z" fill="#11999E"/>
<path d="M339.566 201.588C339.612 201.576 339.654 201.551 339.686 201.515C339.718 201.48 339.738 201.435 339.745 201.388C339.751 201.34 339.743 201.292 339.722 201.249C339.701 201.206 339.668 201.171 339.626 201.147L337.079 199.686L339.541 197.856C339.566 197.837 339.588 197.814 339.604 197.787C339.62 197.76 339.631 197.73 339.635 197.698C339.64 197.667 339.638 197.635 339.631 197.605C339.623 197.574 339.609 197.545 339.59 197.52C339.572 197.495 339.548 197.473 339.521 197.457C339.494 197.441 339.464 197.43 339.433 197.426C339.402 197.421 339.37 197.423 339.339 197.431C339.309 197.438 339.28 197.452 339.255 197.471L336.498 199.519C336.466 199.543 336.44 199.574 336.423 199.61C336.406 199.646 336.399 199.686 336.401 199.726C336.403 199.766 336.416 199.804 336.437 199.838C336.458 199.872 336.487 199.9 336.521 199.92L339.387 201.564C339.441 201.595 339.505 201.603 339.566 201.588Z" fill="#11999E"/>
<path d="M343.656 202.972C343.679 202.967 343.702 202.957 343.722 202.945C343.749 202.928 343.772 202.907 343.791 202.881C343.81 202.856 343.823 202.827 343.831 202.796C343.838 202.766 343.839 202.734 343.835 202.703C343.83 202.671 343.819 202.641 343.802 202.614L339.884 196.171C339.851 196.117 339.798 196.078 339.736 196.063C339.674 196.048 339.609 196.058 339.554 196.091C339.5 196.124 339.461 196.178 339.446 196.24C339.431 196.301 339.441 196.367 339.474 196.421L343.392 202.865C343.419 202.908 343.459 202.943 343.506 202.962C343.554 202.981 343.606 202.985 343.656 202.972Z" fill="#11999E"/>
<path d="M123.39 125.341H102.16C101.294 125.341 100.591 126.043 100.591 126.91V128.985C100.591 129.851 101.294 130.553 102.16 130.553H123.39C124.256 130.553 124.958 129.851 124.958 128.985V126.91C124.958 126.043 124.256 125.341 123.39 125.341Z" fill="#11999E"/>
<path d="M135.764 135.765H89.7848C88.9188 135.765 88.2167 136.467 88.2167 137.334V139.408C88.2167 140.275 88.9188 140.977 89.7848 140.977H135.764C136.63 140.977 137.332 140.275 137.332 139.408V137.334C137.332 136.467 136.63 135.765 135.764 135.765Z" fill="#E6E6E6"/>
<path d="M135.764 146.189H89.7848C88.9188 146.189 88.2167 146.891 88.2167 147.758V149.832C88.2167 150.699 88.9188 151.401 89.7848 151.401H135.764C136.63 151.401 137.332 150.699 137.332 149.832V147.758C137.332 146.891 136.63 146.189 135.764 146.189Z" fill="#E6E6E6"/>
<path d="M139.662 181.094L139.766 181.423L139.772 181.434L142.906 190.967L146.513 201.953L153.297 222.598L153.363 225.805V225.816L153.867 251.615L152.47 255.112L154.043 260.846C154.043 260.846 153.319 252.178 149.439 257.156C147.241 259.985 144.671 262.879 142.561 265.593C145.636 266.837 148.759 267.963 151.933 268.97C152.618 269.189 153.308 269.397 153.999 269.606C154.147 269.65 154.295 269.693 154.443 269.737C164.961 272.849 175.835 274.597 186.799 274.94C187.369 274.956 187.928 274.967 188.471 274.978C188.662 274.984 188.849 274.989 189.035 274.989C189.649 274.995 190.257 275 190.871 275C192.11 275 193.343 274.982 194.57 274.945C203.656 274.689 212.69 273.467 221.517 271.3C221.457 267.654 221.293 263.395 221.057 258.845C220.947 256.613 218.487 254.196 218.339 251.861C218.235 250.106 220.443 248.456 220.328 246.675C219.583 235.705 218.651 239.916 217.961 232.148C217.889 231.386 217.824 230.657 217.763 229.961C217.319 224.972 217.013 221.853 217.013 221.853L219.961 203.263L224.592 174.077L224.236 173.491L223.836 173.293L199.409 161.2L198.083 157.801C197.697 156.822 197.026 155.981 196.158 155.386C195.29 154.791 194.264 154.47 193.211 154.463L177.121 154.397C176.286 154.393 175.462 154.589 174.717 154.967C173.973 155.346 173.329 155.896 172.84 156.573L168.483 162.609L139.662 181.094Z" fill="#3F3D56"/>
<path d="M157.008 218.004L153.363 225.805L150.875 231.134L146.595 253.55L144.452 255.825L142.616 247.771L123.4 252.039C122.77 248.536 123.232 252.157 122.843 248.314C122.952 248.205 123.067 248.095 123.182 247.985C123.489 247.7 123.747 247.432 123.741 247.174C123.522 233.919 124.18 211.36 129.671 197.694C130.531 195.462 131.665 193.347 133.047 191.395C133.157 191.247 133.261 191.099 133.365 190.951C135.897 187.404 137.497 183.912 139.766 181.429V181.423C139.78 181.412 139.793 181.399 139.804 181.385C139.813 181.381 139.82 181.375 139.826 181.368L155.413 173.102L156.081 191.894L156.558 205.401L157.008 218.004Z" fill="#3F3D56"/>
<path d="M213.209 220.22L217.761 229.963L219.35 233.357L223.629 255.77L225.765 258.04L227.605 249.988L228.47 249.811L244.063 246.58L248.608 261.019C249.633 259.312 250.036 257.303 249.751 255.332C249.465 253.362 248.508 251.55 247.042 250.204C246.731 249.923 246.473 249.649 246.48 249.391C246.739 233.8 245.785 205.332 237.176 193.615C234.441 189.896 232.8 186.193 230.413 183.606C230.406 183.598 230.406 183.591 230.399 183.591L224.59 174.077L224.235 173.493L223.836 173.293L213.209 220.22Z" fill="#3F3D56"/>
<path d="M185.631 149.817C197.453 149.817 207.037 140.23 207.037 128.404C207.037 116.578 197.453 106.991 185.631 106.991C173.808 106.991 164.224 116.578 164.224 128.404C164.224 140.23 173.808 149.817 185.631 149.817Z" fill="#FFB6B6"/>
<path d="M214.564 113.447C214.398 113.27 214.198 113.128 213.976 113.03C213.754 112.931 213.514 112.879 213.272 112.875L213.594 111.982C213.699 111.7 213.727 111.396 213.676 111.1C213.624 110.803 213.495 110.526 213.302 110.297C213.108 110.067 212.857 109.892 212.574 109.792C212.291 109.691 211.986 109.667 211.691 109.723L210.519 109.949L210.629 109.166C210.672 108.874 210.637 108.576 210.53 108.302C210.422 108.027 210.245 107.785 210.016 107.6C209.787 107.415 209.513 107.293 209.222 107.245C208.931 107.198 208.633 107.227 208.357 107.33C208.106 107.429 207.836 107.47 207.566 107.451C207.297 107.432 207.035 107.353 206.8 107.219C206.565 107.09 206.36 106.911 206.201 106.694C206.041 106.478 205.931 106.229 205.878 105.965L205.47 103.995L205.426 103.889C203.438 100.573 199.613 98.1609 194.934 97.2767C190.769 96.4838 186.498 96.8875 182.381 97.2671C180.748 97.4209 178.903 97.5939 177.365 98.5358C176.059 99.3431 174.954 100.958 175.18 102.587C171.12 101.342 166.768 103.827 164.61 106.96C162.055 110.689 161.637 115.36 161.569 119.012C161.387 127.652 163.169 134.721 166.854 140.027C167.123 140.411 167.19 141.214 167.724 141.483L167.613 141.305C168.209 141.603 168.814 142.083 168.588 142.598C167.94 144.078 172.249 147.35 175.285 148.432C180.824 150.407 188.189 150.238 193.368 149.527L193.551 148.302C195.419 148.047 196.736 147.562 197.106 146.802C197.759 146.245 198.316 145.745 198.802 145.284L198.806 145.279C198.816 145.27 198.835 145.255 198.845 145.245C201.184 143.001 201.727 141.723 201.972 139.777C202.208 137.869 201.79 135.932 201.362 134.188C210.365 135.582 197.817 124.596 206.205 122.472C206.301 122.442 206.399 122.418 206.498 122.4C206.743 122.342 206.988 122.285 207.223 122.217C208.358 121.909 209.444 121.445 210.452 120.838C212.796 119.411 213.57 117.518 214.78 115.384C214.955 115.08 215.028 114.729 214.989 114.38C214.95 114.032 214.801 113.705 214.564 113.447Z" fill="#2F2E41"/>
<path d="M261.342 221.745C261.337 222.586 261.328 223.763 261.289 225.219C261.284 225.421 261.279 225.628 261.275 225.839C261.212 228.516 261.15 230.76 261.049 233.254C261.044 233.427 261.039 233.595 261.03 233.768C260.895 237.247 260.684 241.298 260.319 247.714C259.641 259.564 258.459 249.343 257.273 253.5C257.215 253.706 257.153 253.951 257.095 254.24C256.915 255.286 256.612 256.307 256.192 257.282C255.563 257.656 254.914 258.017 254.275 258.377C252.454 259.391 250.605 260.367 248.741 261.294C247.693 261.813 246.641 262.323 245.584 262.813C245.416 262.89 245.253 262.967 245.09 263.039C239.677 265.543 234.099 267.672 228.395 269.411C227.281 269.747 226.171 270.074 225.047 270.377C223.874 270.703 222.702 271.011 221.516 271.299C212.688 273.467 203.655 274.69 194.569 274.947C193.344 274.985 192.109 275 190.87 275C190.255 275 189.65 274.995 189.035 274.99C188.847 274.99 188.66 274.985 188.473 274.98C187.93 274.966 187.368 274.956 186.801 274.942C175.837 274.6 164.963 272.851 154.445 269.738L153.998 269.608C153.306 269.396 152.619 269.19 151.932 268.969C148.762 267.964 145.637 266.84 142.559 265.595C140.21 264.648 137.888 263.633 135.593 262.548C135.572 262.543 135.553 262.533 135.536 262.52C135.055 262.299 134.57 262.068 134.09 261.832C134.027 261.799 133.96 261.765 133.893 261.731C132.101 260.857 130.328 259.941 128.575 258.983C127.1 255.595 125.024 254.946 123.737 251.967C123.362 251.081 123.091 250.156 122.93 249.208C122.93 249.199 122.925 249.189 122.925 249.175C123.059 250.962 122.353 246.003 122.92 249.155C122.915 249.098 122.91 249.035 122.906 248.963C122.891 248.79 122.872 248.579 122.843 248.314C121.195 232.221 121.301 213.816 120.585 198.649C120.537 197.669 120.488 196.73 120.436 195.833C120.422 195.535 120.403 195.242 120.383 194.954C120.417 194.867 120.456 194.776 120.499 194.69C120.508 194.665 120.519 194.641 120.532 194.617C120.547 194.588 120.563 194.559 120.58 194.531C120.59 194.517 120.604 194.497 120.614 194.483C120.621 194.466 120.629 194.45 120.638 194.435C120.681 194.368 120.729 194.296 120.782 194.228C120.806 194.199 120.825 194.175 120.849 194.151C120.866 194.127 120.885 194.104 120.907 194.084C120.922 194.061 120.94 194.04 120.96 194.022C120.979 194.002 120.998 193.978 121.022 193.954C121.033 193.939 121.046 193.926 121.061 193.916C121.099 193.872 121.141 193.832 121.186 193.796C121.357 193.638 121.54 193.493 121.733 193.363C121.801 193.32 121.873 193.277 121.94 193.229C122.424 192.939 122.934 192.694 123.463 192.498C123.645 192.431 123.828 192.369 124.025 192.301C124.097 192.282 124.164 192.258 124.236 192.234C124.342 192.2 124.448 192.167 124.558 192.143C125.106 191.979 125.697 191.84 126.336 191.71C126.413 191.696 126.494 191.681 126.576 191.662C126.691 191.638 126.811 191.619 126.932 191.6C127.095 191.571 127.263 191.542 127.431 191.513C128.858 191.287 130.477 191.119 132.264 191.009C132.432 190.999 132.6 190.989 132.769 190.98C132.966 190.97 133.162 190.961 133.364 190.951C133.532 190.941 133.705 190.936 133.878 190.932C134.046 190.922 134.219 190.917 134.397 190.912C134.882 190.898 135.382 190.884 135.891 190.874C137.342 190.845 138.87 190.855 140.474 190.888C141.219 190.908 141.978 190.927 142.756 190.96C142.809 190.96 142.857 190.965 142.905 190.965C143.583 190.989 144.265 191.018 144.966 191.057C145.456 191.081 145.951 191.105 146.446 191.134C146.912 191.162 147.383 191.191 147.858 191.225C148.228 191.244 148.598 191.273 148.973 191.297C149.29 191.321 149.607 191.345 149.924 191.364L150.357 191.393C150.592 191.412 150.827 191.427 151.068 191.451C151.596 191.494 152.124 191.537 152.663 191.58C153.196 191.628 153.739 191.677 154.282 191.725C154.824 191.773 155.372 191.826 155.92 191.878C155.977 191.883 156.03 191.888 156.083 191.893C156.583 191.946 157.082 191.994 157.587 192.047C157.702 192.056 157.822 192.066 157.937 192.08C158.418 192.129 158.909 192.185 159.394 192.237C159.543 192.253 159.691 192.268 159.841 192.285C160.221 192.326 160.596 192.362 160.978 192.407C161.483 192.465 161.997 192.517 162.497 192.585C162.886 192.628 163.275 192.671 163.664 192.719C164.274 192.791 164.894 192.868 165.514 192.95C165.749 192.979 165.984 193.008 166.22 193.041C167.988 193.262 169.775 193.507 171.591 193.762C174.344 194.151 177.14 194.574 179.955 195.031C182.775 195.487 185.611 195.969 188.463 196.477C189.184 196.607 189.904 196.737 190.63 196.871C190.956 196.934 191.283 196.996 191.61 197.059C192.167 197.16 192.724 197.265 193.282 197.371C193.839 197.477 194.396 197.582 194.953 197.693C195.616 197.823 196.284 197.953 196.947 198.082C201.314 198.947 205.657 199.87 209.894 200.836C210.591 200.994 211.287 201.158 211.979 201.316C213.363 201.638 214.734 201.965 216.092 202.297C216.466 202.383 216.836 202.475 217.206 202.566C218.129 202.796 219.051 203.027 219.959 203.263L220.118 203.306C220.785 203.469 221.439 203.637 222.092 203.81C223.634 204.214 225.151 204.623 226.642 205.036C227.631 205.31 228.61 205.587 229.577 205.867C231.023 206.285 232.44 206.708 233.819 207.136C234.16 207.242 234.501 207.347 234.837 207.448C235.846 207.761 236.841 208.078 237.806 208.395C238.575 208.645 239.324 208.9 240.064 209.154C240.804 209.409 241.53 209.664 242.241 209.918C242.697 210.082 243.149 210.255 243.6 210.418C244.249 210.658 244.888 210.899 245.512 211.139C245.704 211.211 245.892 211.288 246.079 211.36C246.199 211.413 246.315 211.456 246.43 211.504C246.656 211.595 246.886 211.682 247.107 211.773C247.333 211.86 247.554 211.951 247.775 212.047C247.991 212.134 248.212 212.225 248.424 212.316C248.64 212.403 248.851 212.494 249.063 212.59C249.24 212.662 249.413 212.739 249.581 212.816C249.922 212.965 250.264 213.114 250.595 213.268C250.758 213.345 250.922 213.417 251.085 213.494L251.46 213.667C251.513 213.695 251.565 213.719 251.618 213.743C251.738 213.801 251.863 213.864 251.983 213.921C252.262 214.051 252.536 214.19 252.805 214.32C253.165 214.503 253.516 214.685 253.852 214.863C254.193 215.046 254.525 215.228 254.842 215.406C254.895 215.435 254.943 215.464 254.996 215.493C255.068 215.531 255.14 215.574 255.212 215.613C255.457 215.752 255.692 215.896 255.928 216.036C256.389 216.319 256.826 216.598 257.234 216.877C257.326 216.939 257.412 217.002 257.503 217.059C257.806 217.276 258.094 217.487 258.363 217.703C258.363 217.708 258.363 217.708 258.368 217.708C258.459 217.775 258.546 217.847 258.632 217.915C258.704 217.982 258.781 218.04 258.853 218.107C259.103 218.323 259.334 218.53 259.545 218.741C259.616 218.806 259.683 218.875 259.747 218.948C259.775 218.971 259.801 218.997 259.824 219.025C259.92 219.121 260.006 219.217 260.088 219.313C260.101 219.326 260.112 219.341 260.122 219.356C260.237 219.491 260.343 219.625 260.444 219.76C260.492 219.827 260.544 219.895 260.588 219.962C260.645 220.044 260.703 220.13 260.751 220.212C260.794 220.279 260.833 220.351 260.871 220.418C260.973 220.592 261.06 220.773 261.131 220.961C261.185 221.089 261.228 221.221 261.26 221.355C261.297 221.483 261.324 221.613 261.342 221.745Z" fill="#40514E"/>
<path opacity="0.2" d="M261.342 221.745C261.337 222.586 261.328 223.763 261.289 225.219C261.284 225.421 261.275 225.628 261.27 225.839C261.222 227.881 261.15 230.404 261.049 233.254C261.044 233.427 261.039 233.595 261.03 233.768C260.895 237.247 260.684 241.298 260.319 247.714C259.641 259.564 258.459 249.343 257.273 253.5C253.977 251.472 250.364 249.348 246.502 247.166C245.805 246.772 245.102 246.376 244.393 245.979C236.668 241.668 228.04 237.151 219.032 232.677C218.676 232.499 218.316 232.322 217.961 232.149C197.327 221.947 174.805 212.023 156.559 205.401C153.037 204.123 149.674 202.97 146.513 201.956C139.855 199.827 134.099 198.337 129.67 197.693C125.058 197.02 121.873 197.261 120.585 198.649C120.537 197.669 120.488 196.73 120.436 195.833C120.417 195.535 120.398 195.242 120.379 194.954C120.408 194.875 120.447 194.799 120.484 194.723C120.489 194.712 120.493 194.701 120.499 194.69C120.508 194.665 120.519 194.641 120.532 194.617C120.547 194.588 120.563 194.559 120.58 194.531C120.596 194.497 120.615 194.465 120.638 194.435C120.681 194.368 120.729 194.296 120.782 194.228C120.821 194.178 120.863 194.13 120.907 194.084C120.922 194.061 120.94 194.04 120.96 194.022C120.979 194.002 120.998 193.978 121.022 193.954C121.033 193.939 121.046 193.926 121.061 193.916C121.099 193.872 121.141 193.832 121.186 193.796C121.357 193.638 121.54 193.493 121.733 193.363C121.801 193.32 121.873 193.277 121.94 193.229C122.424 192.939 122.934 192.694 123.463 192.498C123.645 192.431 123.828 192.368 124.025 192.301C124.097 192.282 124.164 192.258 124.236 192.234C124.342 192.2 124.448 192.167 124.558 192.143C125.106 191.979 125.697 191.84 126.336 191.71C126.528 191.672 126.73 191.633 126.931 191.6C127.095 191.571 127.263 191.542 127.431 191.513C128.858 191.287 130.477 191.119 132.264 191.009C132.432 190.999 132.6 190.989 132.769 190.98C132.966 190.97 133.162 190.96 133.364 190.951C133.532 190.941 133.705 190.936 133.878 190.932C134.046 190.922 134.219 190.917 134.397 190.912C134.882 190.898 135.382 190.884 135.891 190.874C137.342 190.85 138.87 190.86 140.474 190.893C141.219 190.908 141.978 190.932 142.756 190.965C142.804 190.965 142.857 190.97 142.905 190.97C143.583 190.989 144.27 191.023 144.966 191.057C145.456 191.081 145.951 191.105 146.446 191.133C146.912 191.162 147.383 191.191 147.858 191.225C148.228 191.244 148.598 191.273 148.973 191.297C149.29 191.321 149.607 191.345 149.924 191.364C150.304 191.393 150.683 191.422 151.068 191.451C151.596 191.494 152.124 191.537 152.663 191.58C153.196 191.628 153.739 191.676 154.281 191.725C154.824 191.773 155.372 191.825 155.92 191.878C155.977 191.883 156.03 191.888 156.083 191.893C156.583 191.946 157.082 191.994 157.587 192.047C160.383 192.33 163.26 192.662 166.22 193.041C167.988 193.267 169.778 193.509 171.591 193.767C174.344 194.156 177.14 194.579 179.955 195.031C182.775 195.487 185.611 195.969 188.463 196.477C189.184 196.607 189.904 196.737 190.63 196.871C191.514 197.035 192.398 197.201 193.282 197.371C193.839 197.477 194.396 197.582 194.953 197.693C195.616 197.823 196.284 197.953 196.947 198.082C201.314 198.947 205.657 199.87 209.894 200.836C210.591 200.994 211.288 201.158 211.979 201.316C213.363 201.638 214.734 201.965 216.092 202.297C216.466 202.388 216.836 202.479 217.206 202.571C218.133 202.801 219.051 203.032 219.959 203.263V203.267C220.012 203.277 220.065 203.291 220.118 203.306C220.781 203.474 221.439 203.642 222.092 203.815C223.634 204.219 225.151 204.626 226.642 205.036C227.631 205.315 228.611 205.589 229.577 205.867C231.023 206.29 232.44 206.713 233.819 207.136C234.16 207.242 234.501 207.347 234.837 207.448C235.846 207.765 236.836 208.081 237.806 208.395C238.575 208.645 239.325 208.899 240.064 209.154C240.804 209.409 241.53 209.664 242.241 209.918C242.702 210.082 243.153 210.25 243.6 210.413C244.254 210.654 244.888 210.894 245.512 211.139C245.704 211.211 245.892 211.288 246.079 211.36C246.43 211.494 246.771 211.634 247.107 211.773C247.333 211.86 247.554 211.951 247.775 212.047C247.991 212.134 248.212 212.225 248.424 212.316C248.64 212.403 248.851 212.494 249.063 212.59C249.24 212.662 249.413 212.739 249.581 212.816C249.922 212.965 250.264 213.114 250.595 213.268C250.758 213.345 250.922 213.417 251.085 213.494L251.46 213.667C251.513 213.695 251.566 213.719 251.618 213.743C252.027 213.936 252.421 214.128 252.805 214.32C253.165 214.503 253.516 214.685 253.852 214.863C254.251 215.075 254.631 215.281 254.996 215.493C255.068 215.531 255.14 215.574 255.212 215.613C255.457 215.752 255.692 215.896 255.928 216.036C256.389 216.319 256.826 216.598 257.234 216.877C257.638 217.155 258.013 217.429 258.363 217.703C258.363 217.708 258.363 217.708 258.368 217.708C258.536 217.843 258.7 217.977 258.853 218.107C259.103 218.323 259.334 218.53 259.545 218.741C259.616 218.806 259.683 218.875 259.747 218.948C259.775 218.971 259.801 218.997 259.824 219.025C259.925 219.135 260.026 219.246 260.122 219.356C260.237 219.491 260.343 219.625 260.444 219.76C260.492 219.827 260.544 219.895 260.588 219.962C260.645 220.043 260.703 220.13 260.751 220.212C260.794 220.279 260.833 220.351 260.871 220.418C260.973 220.592 261.06 220.773 261.131 220.961C261.183 221.089 261.227 221.221 261.26 221.355C261.297 221.483 261.324 221.613 261.342 221.745Z" fill="black"/>
</g>
<defs>
<clipPath id="clip0_9_185">
<rect width="378" height="275" fill="white"/>
</clipPath>
</defs>
</svg>
