<svg width="25" height="23" viewBox="0 0 25 23" fill="none" xmlns="http://www.w3.org/2000/svg">
<path d="M2.21567 2.21569C3.56548 0.865634 5.37591 0.0759917 7.28368 0.00520538C9.19146 -0.0655809 11.0554 0.587726 12.5016 1.83404C13.9464 0.589803 15.8079 -0.0627697 17.7134 0.00696392C19.6189 0.0766976 21.4277 0.863591 22.7778 2.21011C24.1278 3.55662 24.9195 5.36339 24.9942 7.26868C25.0689 9.17398 24.4212 11.0372 23.1808 12.4853L14.1457 21.5495C13.7306 21.9647 13.1739 22.2077 12.5871 22.2297C12.0004 22.2517 11.427 22.0511 10.982 21.6682L10.854 21.5506L1.82006 12.4853C0.580265 11.0384 -0.0677353 9.17695 0.00561044 7.27298C0.0789562 5.36901 0.868242 3.56288 2.21567 2.21569ZM3.86095 3.86097C2.90943 4.81274 2.36094 6.09436 2.32931 7.43982C2.29768 8.78528 2.78533 10.0913 3.69107 11.0867L3.86095 11.2659L12.5004 19.9054L18.6708 13.7338L14.5576 9.62061L13.3242 10.854C13.0001 11.1782 12.6153 11.4355 12.1918 11.611C11.7683 11.7865 11.3144 11.8769 10.856 11.8771C9.93009 11.8773 9.04205 11.5097 8.38721 10.8551C7.73237 10.2006 7.36436 9.31276 7.36414 8.38689C7.36392 7.46102 7.73151 6.57299 8.38605 5.91815L10.8319 3.47117C9.8585 2.69435 8.64018 2.28979 7.39549 2.3301C6.1508 2.3704 4.9612 2.85292 4.04014 3.69109L3.86095 3.86097ZM13.735 7.15153C13.9532 6.93339 14.2491 6.81085 14.5576 6.81085C14.8661 6.81085 15.162 6.93339 15.3802 7.15153L20.3161 12.0874L21.1399 11.2659C22.1073 10.2991 22.6581 8.99219 22.6744 7.62459C22.6907 6.25698 22.1713 4.93728 21.2272 3.94771C20.2831 2.95815 18.9892 2.37727 17.6224 2.32931C16.2555 2.28135 14.9241 2.77012 13.913 3.69109L13.735 3.86097L10.0325 7.56343C9.83081 7.76497 9.71015 8.03356 9.69342 8.31819C9.67669 8.60282 9.76505 8.88369 9.94173 9.10748L10.0325 9.20871C10.234 9.41039 10.5026 9.53104 10.7873 9.54777C11.0719 9.5645 11.3528 9.47614 11.5765 9.29947L11.6778 9.20871L13.735 7.15153Z" fill="#656565"/>
</svg>
