<svg width="24" height="30" viewBox="0 0 24 30" fill="none" xmlns="http://www.w3.org/2000/svg">
<path d="M12 18C12.825 18 13.5315 17.706 14.1195 17.118C14.7065 16.531 15 15.825 15 15C15 14.175 14.7065 13.4685 14.1195 12.8805C13.5315 12.2935 12.825 12 12 12C11.175 12 10.469 12.2935 9.882 12.8805C9.294 13.4685 9 14.175 9 15C9 15.825 9.294 16.531 9.882 17.118C10.469 17.706 11.175 18 12 18ZM6 24H18V23.1375C18 22.5375 17.8375 21.9875 17.5125 21.4875C17.1875 20.9875 16.7375 20.6125 16.1625 20.3625C15.5125 20.0875 14.844 19.875 14.157 19.725C13.469 19.575 12.75 19.5 12 19.5C11.25 19.5 10.531 19.575 9.843 19.725C9.156 19.875 8.4875 20.0875 7.8375 20.3625C7.2625 20.6125 6.8125 20.9875 6.4875 21.4875C6.1625 21.9875 6 22.5375 6 23.1375V24ZM21 30H3C2.175 30 1.469 29.7065 0.882 29.1195C0.294 28.5315 0 27.825 0 27V3C0 2.175 0.294 1.4685 0.882 0.8805C1.469 0.2935 2.175 0 3 0H13.7625C14.1625 0 14.544 0.0750001 14.907 0.225C15.269 0.375 15.5875 0.5875 15.8625 0.8625L23.1375 8.1375C23.4125 8.4125 23.625 8.731 23.775 9.093C23.925 9.456 24 9.8375 24 10.2375V27C24 27.825 23.7065 28.5315 23.1195 29.1195C22.5315 29.7065 21.825 30 21 30Z" fill="#656565"/>
</svg>
