<svg width="25" height="19" viewBox="0 0 25 19" fill="none" xmlns="http://www.w3.org/2000/svg">
<path d="M22.1549 0.311692C21.8876 0.138779 21.5819 0.0341695 21.2647 0.00706022C20.9475 -0.0200491 20.6286 0.0311716 20.3358 0.15622L10.7432 3.9342C10.5161 4.02663 10.2732 4.07415 10.028 4.07413H3.88682C3.37139 4.07413 2.87708 4.27888 2.51262 4.64334C2.14816 5.0078 1.94341 5.50211 1.94341 6.01754V6.17301H0V10.8372H1.94341V11.0393C1.95559 11.5466 2.1657 12.029 2.52885 12.3834C2.892 12.7379 3.37937 12.9362 3.88682 12.9361L6.21891 17.8801C6.37682 18.213 6.62543 18.4947 6.9362 18.6927C7.24696 18.8907 7.60727 18.997 7.97575 18.9995H8.95522C9.46795 18.9954 9.95828 18.7888 10.3194 18.4248C10.6805 18.0608 10.8831 17.5688 10.8831 17.0561V13.1226L20.3358 16.9006C20.5683 16.9931 20.8163 17.0406 21.0665 17.0405C21.4548 17.0343 21.8328 16.9155 22.1549 16.6985C22.4106 16.5259 22.6215 16.2948 22.7702 16.0244C22.9189 15.7541 23.0011 15.4522 23.01 15.1438V1.91306C23.0085 1.5967 22.9299 1.28547 22.7809 1.0064C22.6319 0.727326 22.417 0.488854 22.1549 0.311692ZM8.93968 6.01754V11.0393H3.88682V6.01754H8.93968ZM8.93968 17.0561H7.9602L6.04789 12.9361H8.93968V17.0561ZM11.4583 11.2725C11.2737 11.1782 11.0813 11.1001 10.8831 11.0393V5.90871C11.0794 5.86821 11.2718 5.811 11.4583 5.73769L21.0665 1.91306V15.0971L11.4583 11.2725ZM23.0566 6.56169V10.4485C23.572 10.4485 24.0663 10.2438 24.4308 9.8793C24.7952 9.51484 25 9.02052 25 8.5051C25 7.98968 24.7952 7.49536 24.4308 7.1309C24.0663 6.76644 23.572 6.56169 23.0566 6.56169Z" fill="#656565"/>
</svg>
