<svg width="25" height="24" viewBox="0 0 25 24" fill="none" xmlns="http://www.w3.org/2000/svg">
<path d="M25 0H0V7.5H1.25V21.25C1.25 21.913 1.51339 22.5489 1.98223 23.0178C2.45107 23.4866 3.08696 23.75 3.75 23.75H21.25C21.913 23.75 22.5489 23.4866 23.0178 23.0178C23.4866 22.5489 23.75 21.913 23.75 21.25V7.5H25V0ZM2.5 2.5H22.5V5H2.5V2.5ZM21.25 21.25H3.75V7.5H21.25V21.25ZM8.75 10H16.25C16.25 10.663 15.9866 11.2989 15.5178 11.7678C15.0489 12.2366 14.413 12.5 13.75 12.5H11.25C10.587 12.5 9.95107 12.2366 9.48223 11.7678C9.01339 11.2989 8.75 10.663 8.75 10Z" fill="#656565"/>
</svg>
