<svg width="409" height="229" viewBox="0 0 409 229" fill="none" xmlns="http://www.w3.org/2000/svg">
<g clip-path="url(#clip0_5_41)" filter="url(#filter0_d_5_41)">
<path d="M65.171 188.835C56.2664 195.49 53.7427 207.199 53.7427 207.199C53.7427 207.199 65.6562 208.119 74.5608 201.464C83.4654 194.809 85.9891 183.1 85.9891 183.1C85.9891 183.1 74.0756 182.181 65.171 188.835Z" fill="#F1F1F1"/>
<path d="M68.8802 191.96C64.6006 202.235 53.8824 207.53 53.8824 207.53C53.8824 207.53 50.1028 196.165 54.3824 185.89C58.662 175.615 69.3803 170.321 69.3803 170.321C69.3803 170.321 73.1599 181.685 68.8802 191.96Z" fill="#F1F1F1"/>
<path d="M325.073 162.256C324.127 155.867 323.877 149.393 324.328 142.949L325.073 132.285C320.965 140.479 321.894 151.264 325.073 162.256V162.256Z" fill="#CACACA"/>
<path d="M328.276 164.04C327.821 160.227 327.701 156.382 327.917 152.548L328.276 146.2C326.3 151.078 326.746 157.497 328.276 164.04Z" fill="#CACACA"/>
<path d="M342.513 171.891V175.459C342.512 175.742 342.399 176.013 342.199 176.214C341.999 176.414 341.728 176.527 341.446 176.529H339.666C339.619 176.529 339.573 176.538 339.53 176.556C339.486 176.574 339.447 176.6 339.414 176.633C339.381 176.666 339.355 176.706 339.337 176.749C339.319 176.792 339.31 176.839 339.31 176.886V206.143C339.309 206.427 339.196 206.698 338.996 206.899C338.796 207.099 338.525 207.212 338.243 207.214H316.533C316.25 207.213 315.979 207.101 315.779 206.9C315.578 206.699 315.466 206.427 315.466 206.143V176.886C315.465 176.791 315.428 176.701 315.361 176.634C315.294 176.567 315.204 176.529 315.11 176.529H312.974C312.691 176.529 312.42 176.416 312.22 176.215C312.019 176.014 311.907 175.742 311.907 175.459V171.891C311.907 171.75 311.934 171.611 311.988 171.481C312.041 171.351 312.12 171.233 312.219 171.133C312.318 171.034 312.436 170.955 312.566 170.901C312.695 170.848 312.834 170.82 312.974 170.82H341.446C341.729 170.821 342 170.934 342.2 171.135C342.4 171.335 342.512 171.607 342.513 171.891Z" fill="#F2F2F2"/>
<path d="M339.342 177.278H315.498V178.349H339.342V177.278Z" fill="#E6E6E6"/>
<path d="M339.31 193.029C331.331 196.339 323.265 196.376 315.11 193.029V185.488C322.961 182.844 331.459 182.844 339.31 185.488V193.029Z" fill="#E6E6E6"/>
<path d="M205.658 77.7282C223.47 77.7282 237.909 63.2519 237.909 45.3945C237.909 27.5371 223.47 13.0609 205.658 13.0609C187.846 13.0609 173.407 27.5371 173.407 45.3945C173.407 63.2519 187.846 77.7282 205.658 77.7282Z" fill="#FEB8B8"/>
<path d="M235.781 17.4997C230.959 9.64979 223.412 3.86549 214.591 1.26025L210.631 4.15695V0.395673C208.513 0.0706192 206.369 -0.0546009 204.227 0.0216597L200.811 3.12033V0.279098C195.754 0.909194 190.881 2.58306 186.501 5.19514C182.121 7.80722 178.328 11.3009 175.361 15.4558C167.943 26.1773 166.691 41.0934 173.987 51.901C175.99 45.7299 178.421 39.9396 180.424 33.7691C181.999 33.9842 183.594 33.992 185.17 33.7922L187.607 28.0916L188.288 33.5509C195.841 32.8914 207.044 31.4428 214.204 30.1157L213.508 25.9274L217.674 29.4076C219.867 28.9014 221.17 28.442 221.062 28.0911C226.388 36.6982 232.905 42.1955 238.23 50.8027C240.252 38.6661 242.58 28.5747 235.781 17.4997Z" fill="#2F2E41"/>
<path d="M275.022 128.542C273.913 121.852 272.769 115.035 269.668 109.009C267.63 105.062 264.395 101.301 260.033 100.52C259.174 100.444 258.33 100.248 257.525 99.9381C256.247 99.321 239.075 89.4933 236.346 87.7816C234.002 86.3121 230.303 83.5913 228.438 83.5913C226.561 83.5499 219.366 85.2289 191.281 83.0279C191.281 83.0279 183.566 86.0767 177.596 89.7736C177.506 89.7138 148.447 105.358 147.355 105.317C145.288 105.23 143.366 106.557 142.181 108.228C140.996 109.899 140.44 111.968 139.858 113.968C146.205 128.139 152.012 142.328 158.359 156.498C158.657 157.032 158.815 157.632 158.818 158.244C158.691 158.878 158.421 159.475 158.029 159.989C154.916 165.002 155.015 171.307 155.355 177.199C155.695 183.091 156.116 189.314 153.49 194.595C152.775 196.045 151.846 197.372 151.167 198.822C149.576 202.106 149.001 212.609 149.93 216.137L266.365 219.481C263.862 212.582 275.022 128.542 275.022 128.542Z" fill="#11999E"/>
<path d="M129.793 157.126C129.561 158.811 129.538 160.519 129.724 162.209L131.392 186.237C131.549 188.501 131.703 190.76 131.915 193.019C132.316 197.403 132.914 201.753 133.656 206.095C133.673 206.712 133.933 207.297 134.379 207.721C134.826 208.146 135.422 208.376 136.037 208.36C143.383 209.918 150.973 209.856 158.47 209.432C169.911 208.791 199.179 207.58 200.967 205.251C202.756 202.923 201.714 199.156 199.382 197.273C197.05 195.389 158.426 190.798 158.426 190.798C158.803 187.8 159.942 184.976 161.022 182.13C162.962 177.08 164.774 171.866 164.808 166.457C164.843 161.048 162.811 155.361 158.391 152.262C154.756 149.719 150.075 149.247 145.645 149.351C142.422 149.444 136.853 148.67 133.909 149.934C131.579 150.962 130.228 154.839 129.793 157.126Z" fill="#FBBEBE"/>
<path d="M139.522 114.4C138.956 114.994 138.518 115.697 138.233 116.467C133.539 127.073 130.766 138.432 130.045 150.013C130.058 150.578 129.928 151.136 129.668 151.637C129.411 151.971 129.125 152.28 128.814 152.563C128.543 152.886 128.337 153.259 128.21 153.661C128.082 154.063 128.035 154.486 128.07 154.907C128.106 155.328 128.224 155.737 128.417 156.112C128.61 156.487 128.876 156.82 129.197 157.092C129.25 157.137 129.304 157.179 129.36 157.221C130.318 155.413 132.612 154.822 134.65 154.665C144.412 153.891 153.947 158.444 163.738 158.1C163.048 155.707 162.054 153.408 161.491 150.986C158.999 140.233 165.213 128.525 161.404 118.167C160.643 116.095 159.371 114.057 157.368 113.149C156.538 112.813 155.67 112.583 154.784 112.463C152.31 112.015 147.385 110.099 144.993 110.868C144.11 111.153 143.762 111.986 143.03 112.489C141.918 113.2 140.443 113.462 139.522 114.4Z" fill="#11999E"/>
<path d="M275.091 149.934C272.147 148.67 266.578 149.444 263.355 149.351C258.925 149.247 254.244 149.719 250.609 152.263C246.189 155.361 244.157 161.048 244.192 166.457C244.226 171.866 246.038 177.08 247.978 182.13C249.058 184.976 250.197 187.8 250.574 190.798C250.574 190.798 211.95 195.389 209.618 197.273C207.286 199.156 206.244 202.923 208.032 205.251C209.821 207.58 265.617 209.918 272.963 208.36C273.578 208.376 274.174 208.146 274.62 207.721C275.067 207.297 275.327 206.712 275.344 206.095C276.086 201.753 276.684 197.403 277.085 193.019C277.297 190.76 277.451 188.501 277.608 186.237L279.276 162.209C279.462 160.519 279.439 158.811 279.207 157.127C278.771 154.839 277.421 150.962 275.091 149.934Z" fill="#FBBEBE"/>
<path d="M265.97 112.489C265.238 111.985 264.89 111.153 264.007 110.868C261.615 110.099 256.69 112.015 254.216 112.463C253.33 112.583 252.462 112.813 251.632 113.149C249.629 114.057 248.357 116.095 247.596 118.167C243.787 128.525 250.001 140.232 247.509 150.986C246.946 153.408 245.952 155.707 245.262 158.1C255.053 158.444 264.588 153.891 274.35 154.665C276.388 154.822 278.682 155.413 279.64 157.221C279.696 157.179 279.75 157.137 279.803 157.092C280.124 156.82 280.39 156.487 280.583 156.112C280.776 155.737 280.894 155.328 280.93 154.907C280.965 154.486 280.918 154.063 280.79 153.661C280.663 153.259 280.457 152.886 280.186 152.563C279.875 152.28 279.589 151.971 279.332 151.637C279.072 151.136 278.942 150.578 278.955 150.013C278.234 138.432 275.461 127.073 270.767 116.467C270.482 115.697 270.044 114.994 269.478 114.4C268.557 113.462 267.082 113.2 265.97 112.489Z" fill="#11999E"/>
<path d="M196.106 209.508C200.914 209.508 204.811 205.6 204.811 200.781C204.811 195.961 200.914 192.054 196.106 192.054C191.299 192.054 187.402 195.961 187.402 200.781C187.402 205.6 191.299 209.508 196.106 209.508Z" fill="#FBBEBE"/>
<path d="M215.381 209.508C220.188 209.508 224.085 205.6 224.085 200.781C224.085 195.961 220.188 192.054 215.381 192.054C210.573 192.054 206.676 195.961 206.676 200.781C206.676 205.6 210.573 209.508 215.381 209.508Z" fill="#FBBEBE"/>
<path d="M269.112 220.446H149.524C148.127 220.444 146.789 219.887 145.802 218.897C144.814 217.908 144.259 216.566 144.257 215.166V142.43C144.259 141.03 144.814 139.688 145.802 138.698C146.789 137.708 148.127 137.152 149.524 137.15H269.112C270.509 137.152 271.847 137.708 272.835 138.698C273.822 139.688 274.377 141.03 274.379 142.43V215.166C274.377 216.566 273.822 217.908 272.835 218.897C271.847 219.887 270.509 220.444 269.112 220.446Z" fill="#40514E"/>
<path d="M209.028 182.291C210.952 182.291 212.512 180.727 212.512 178.798C212.512 176.869 210.952 175.305 209.028 175.305C207.104 175.305 205.544 176.869 205.544 178.798C205.544 180.727 207.104 182.291 209.028 182.291Z" fill="white"/>
<path d="M405 205.774H4V218.128H27.7187V221H381.29V218.128H405V205.774Z" fill="#F1F1F1"/>
<path d="M176.001 57.4459C170.819 57.4459 166.618 52.8921 166.618 47.2747V42.189C166.618 36.5716 170.819 32.0178 176.001 32.0178V57.4459H176.001Z" fill="#11999E"/>
<path d="M235.89 32.0178C241.072 32.0178 245.273 36.5716 245.273 42.1891V47.2747C245.273 52.8921 241.072 57.4459 235.89 57.4459V32.0178Z" fill="#11999E"/>
<path d="M240.807 42.9882H239.318C239.318 22.5217 223.958 5.8709 205.077 5.8709C186.196 5.8709 170.836 22.5217 170.836 42.9882H169.347C169.347 21.6318 185.376 4.25711 205.077 4.25711C224.779 4.25712 240.807 21.6318 240.807 42.9882Z" fill="#11999E"/>
</g>
<defs>
<filter id="filter0_d_5_41" x="0" y="0" width="409" height="229" filterUnits="userSpaceOnUse" color-interpolation-filters="sRGB">
<feFlood flood-opacity="0" result="BackgroundImageFix"/>
<feColorMatrix in="SourceAlpha" type="matrix" values="0 0 0 0 0 0 0 0 0 0 0 0 0 0 0 0 0 0 127 0" result="hardAlpha"/>
<feOffset dy="4"/>
<feGaussianBlur stdDeviation="2"/>
<feComposite in2="hardAlpha" operator="out"/>
<feColorMatrix type="matrix" values="0 0 0 0 0 0 0 0 0 0 0 0 0 0 0 0 0 0 0.25 0"/>
<feBlend mode="normal" in2="BackgroundImageFix" result="effect1_dropShadow_5_41"/>
<feBlend mode="normal" in="SourceGraphic" in2="effect1_dropShadow_5_41" result="shape"/>
</filter>
<clipPath id="clip0_5_41">
<rect width="401" height="221" fill="white" transform="translate(4)"/>
</clipPath>
</defs>
</svg>
