<svg width="25" height="21" viewBox="0 0 25 21" fill="none" xmlns="http://www.w3.org/2000/svg">
<path d="M3.47662 11.8379V15.1979C3.47662 16.0708 3.95492 16.8839 4.7202 17.3024L10.6989 20.5668C11.4164 20.9614 12.2773 20.9614 12.9947 20.5668L18.9735 17.3024C19.7387 16.8839 20.217 16.0708 20.217 15.1979V11.8379L12.9947 15.7838C12.2773 16.1784 11.4164 16.1784 10.6989 15.7838L3.47662 11.8379ZM10.6989 0.286978L0.618797 5.7874C-0.206266 6.24178 -0.206266 7.43752 0.618797 7.89191L10.6989 13.3923C11.4164 13.7869 12.2773 13.7869 12.9947 13.3923L22.6085 8.14301V15.2099C22.6085 15.8675 23.1466 16.4056 23.8043 16.4056C24.4619 16.4056 25 15.8675 25 15.2099V7.54514C25 7.10272 24.7609 6.70812 24.3782 6.49289L12.9947 0.286978C12.6415 0.0985589 12.2472 0 11.8468 0C11.4464 0 11.0522 0.0985589 10.6989 0.286978Z" fill="#656565"/>
</svg>
