<svg width="25" height="20" viewBox="0 0 25 20" fill="none" xmlns="http://www.w3.org/2000/svg">
<path d="M13.1953 0.210937C12.7734 -0.0703125 12.2266 -0.0703125 11.8047 0.210937L6.49609 3.75H1.875C0.839844 3.75 0 4.58984 0 5.625V18.125C0 19.1602 0.839844 20 1.875 20H23.125C24.1602 20 25 19.1602 25 18.125V5.625C25 4.58984 24.1602 3.75 23.125 3.75H18.5039L13.1953 0.210937ZM10 16.25C10 14.8711 11.1211 13.75 12.5 13.75C13.8789 13.75 15 14.8711 15 16.25V20H10V16.25ZM3.75 7.5H5C5.34375 7.5 5.625 7.78125 5.625 8.125V10.625C5.625 10.9688 5.34375 11.25 5 11.25H3.75C3.40625 11.25 3.125 10.9688 3.125 10.625V8.125C3.125 7.78125 3.40625 7.5 3.75 7.5ZM19.375 8.125C19.375 7.78125 19.6562 7.5 20 7.5H21.25C21.5938 7.5 21.875 7.78125 21.875 8.125V10.625C21.875 10.9688 21.5938 11.25 21.25 11.25H20C19.6562 11.25 19.375 10.9688 19.375 10.625V8.125ZM3.75 12.5H5C5.34375 12.5 5.625 12.7812 5.625 13.125V15.625C5.625 15.9688 5.34375 16.25 5 16.25H3.75C3.40625 16.25 3.125 15.9688 3.125 15.625V13.125C3.125 12.7812 3.40625 12.5 3.75 12.5ZM19.375 13.125C19.375 12.7812 19.6562 12.5 20 12.5H21.25C21.5938 12.5 21.875 12.7812 21.875 13.125V15.625C21.875 15.9688 21.5938 16.25 21.25 16.25H20C19.6562 16.25 19.375 15.9688 19.375 15.625V13.125ZM9.0625 6.875C9.0625 5.96332 9.42466 5.08898 10.0693 4.44432C10.714 3.79966 11.5883 3.4375 12.5 3.4375C13.4117 3.4375 14.286 3.79966 14.9307 4.44432C15.5753 5.08898 15.9375 5.96332 15.9375 6.875C15.9375 7.78668 15.5753 8.66102 14.9307 9.30568C14.286 9.95034 13.4117 10.3125 12.5 10.3125C11.5883 10.3125 10.714 9.95034 10.0693 9.30568C9.42466 8.66102 9.0625 7.78668 9.0625 6.875ZM12.5 5C12.1562 5 11.875 5.28125 11.875 5.625V6.875C11.875 7.21875 12.1562 7.5 12.5 7.5H13.75C14.0938 7.5 14.375 7.21875 14.375 6.875C14.375 6.53125 14.0938 6.25 13.75 6.25H13.125V5.625C13.125 5.28125 12.8438 5 12.5 5Z" fill="#656565"/>
</svg>
