<svg width="26" height="30" viewBox="0 0 26 30" fill="none" xmlns="http://www.w3.org/2000/svg">
<path d="M17.0455 20.7955L20.9455 23.1L19.9227 24.7636L15 21.8182V15H17.0455V20.7955ZM25.9091 20.4545C25.9091 25.7318 21.6409 30 16.3636 30C13.7591 30 11.4136 28.9636 9.69545 27.2727H2.72727C1.21364 27.2727 0 26.0591 0 24.5455V2.72727C0 2.00396 0.287337 1.31026 0.7988 0.7988C1.31026 0.287337 2.00396 0 2.72727 0H4.09091V9.54545L7.5 7.5L10.9091 9.54545V0H19.0909C19.8142 0 20.5079 0.287337 21.0194 0.7988C21.5308 1.31026 21.8182 2.00396 21.8182 2.72727V12.6273C24.2864 14.3591 25.9091 17.2091 25.9091 20.4545ZM23.1818 20.4545C23.1818 16.6909 20.1273 13.6364 16.3636 13.6364C12.6 13.6364 9.54545 16.6909 9.54545 20.4545C9.54545 24.2182 12.6 27.2727 16.3636 27.2727C20.1273 27.2727 23.1818 24.2182 23.1818 20.4545Z" fill="#656565"/>
</svg>
