<svg width="33" height="32" viewBox="0 0 33 32" fill="none" xmlns="http://www.w3.org/2000/svg">
<g filter="url(#filter0_d_117_42)">
<path fill-rule="evenodd" clip-rule="evenodd" d="M15.3287 0.410629C15.6363 0.164688 16.0135 0.0218256 16.4068 0.00230568C16.8001 -0.0172143 17.1896 0.0875988 17.52 0.301879L17.6713 0.410629L23.0613 4.72313C23.3242 4.93331 23.542 5.19444 23.7016 5.49086C23.8612 5.78728 23.9593 6.11288 23.99 6.44813L24 6.67438V21.0744H25.25V10.4494C25.25 10.3031 25.3012 10.1614 25.3949 10.0491C25.4885 9.93668 25.6186 9.86071 25.7625 9.83438L25.875 9.82438H26.5C27.1307 9.82418 27.7382 10.0624 28.2007 10.4912C28.6632 10.9201 28.9464 11.5079 28.9938 12.1369L29 12.3244V22.1994C28.9999 22.538 28.8748 22.8646 28.6487 23.1167C28.4227 23.3689 28.1116 23.5287 27.775 23.5656L27.625 23.5744H5.375C5.03618 23.5746 4.70922 23.4496 4.45685 23.2235C4.20448 22.9975 4.04446 22.6862 4.0075 22.3494L4 22.1994V12.3244C3.9998 11.6937 4.23801 11.0862 4.66687 10.6237C5.09573 10.1612 5.68356 9.87793 6.3125 9.83063L6.5 9.82438H7.125C7.27128 9.82433 7.41295 9.87559 7.52532 9.96924C7.6377 10.0629 7.71367 10.193 7.74 10.3369L7.75 10.4494V21.0744H9V6.67438C8.99998 6.33773 9.06795 6.00455 9.19983 5.69482C9.33172 5.38508 9.5248 5.10517 9.7675 4.87188L9.93875 4.72188L15.3287 0.409379V0.410629ZM16.5 8.57313C15.837 8.57313 15.2011 8.83652 14.7322 9.30536C14.2634 9.7742 14 10.4101 14 11.0731C14 11.7362 14.2634 12.3721 14.7322 12.8409C15.2011 13.3097 15.837 13.5731 16.5 13.5731C17.163 13.5731 17.7989 13.3097 18.2678 12.8409C18.7366 12.3721 19 11.7362 19 11.0731C19 10.4101 18.7366 9.7742 18.2678 9.30536C17.7989 8.83652 17.163 8.57313 16.5 8.57313Z" fill="#656565"/>
</g>
<defs>
<filter id="filter0_d_117_42" x="0" y="0" width="33" height="31.5744" filterUnits="userSpaceOnUse" color-interpolation-filters="sRGB">
<feFlood flood-opacity="0" result="BackgroundImageFix"/>
<feColorMatrix in="SourceAlpha" type="matrix" values="0 0 0 0 0 0 0 0 0 0 0 0 0 0 0 0 0 0 127 0" result="hardAlpha"/>
<feOffset dy="4"/>
<feGaussianBlur stdDeviation="2"/>
<feComposite in2="hardAlpha" operator="out"/>
<feColorMatrix type="matrix" values="0 0 0 0 0 0 0 0 0 0 0 0 0 0 0 0 0 0 0.25 0"/>
<feBlend mode="normal" in2="BackgroundImageFix" result="effect1_dropShadow_117_42"/>
<feBlend mode="normal" in="SourceGraphic" in2="effect1_dropShadow_117_42" result="shape"/>
</filter>
</defs>
</svg>
