<svg width="25" height="25" viewBox="0 0 25 25" fill="none" xmlns="http://www.w3.org/2000/svg">
<path d="M8.33338 0L5.55559 2.77779L2.77779 5.55559L5.55559 8.33338L8.33338 11.1112L9.30561 10.1389L10.2778 9.16672L8.47227 7.36115L6.6667 5.55559L8.47227 3.75002L10.2778 1.94446L9.30561 0.972227L8.33338 0ZM16.6668 0L15.6945 0.972227L14.7223 1.94446L16.5279 3.75002L18.3334 5.55559L16.5279 7.36115L14.7223 9.16672L15.6945 10.1389L16.6668 11.1112L19.4446 8.33338L22.2223 5.55559L19.4446 2.77779L16.6668 0ZM24.9682 20.9584L24.4293 18.8307C24.3948 18.695 24.3332 18.5677 24.2482 18.4565C24.1633 18.3453 24.0567 18.2524 23.9349 18.1834C23.8124 18.1134 23.6773 18.0685 23.5373 18.0513C23.3973 18.0342 23.2553 18.0451 23.1196 18.0834L16.7973 19.8668L12.5001 18.0557L17.9376 16.6626C18.3088 16.3314 18.5777 15.9011 18.7126 15.4223L18.2862 13.889L6.94448 15.2779H0V23.6112H6.94448L13.132 24.9501C13.4684 24.9807 13.8072 24.9728 14.1417 24.9265L24.2251 22.2126C24.4896 22.1418 24.7159 21.9703 24.8557 21.7348C24.9247 21.619 24.9701 21.4906 24.9894 21.3572C25.0087 21.2237 25.0015 21.0891 24.9682 20.9584ZM4.16669 22.2223H1.3889V16.6668H4.16669V22.2223ZM13.7806 23.5862C13.718 23.6026 13.6536 23.611 13.589 23.6112C13.5353 23.6114 13.4817 23.6059 13.4292 23.5946L6.94448 22.171V16.6945L17.1237 15.4334L9.72228 18.0557L16.2793 21.1557L16.7195 21.3321L17.1751 21.2029L23.1696 19.5126L23.5362 20.9598L13.7806 23.5862Z" fill="#656565"/>
</svg>
